<svg xmlns="http://www.w3.org/2000/svg">
    <defs>
        <symbol id="circle">
            <rect width="30" height="30" rx="15" fill="currentColor" />
        </symbol>
        <symbol id="square">
            <rect width="30" height="30" fill="currentColor"/>
        </symbol>
        <symbol id="triangle">
            <path d="M0 0L30 32H0V0Z" fill="currentColor"/>
        </symbol>
        <symbol id="help">
            <path fill="currentColor" fill-rule="evenodd" clip-rule="evenodd" d="M12 3C7.02944 3 3 7.02944 3 12C3 16.9706 7.02944 21 12 21C16.9706 21 21 16.9706 21 12C21 7.02944 16.9706 3 12 3ZM1 12C1 5.92487 5.92487 1 12 1C18.0751 1 23 5.92487 23 12C23 18.0751 18.0751 23 12 23C5.92487 23 1 18.0751 1 12Z" />
            <path fill="currentColor" fill-rule="evenodd" clip-rule="evenodd" d="M12.2581 8.02432C11.7926 7.94447 11.3138 8.03195 10.9066 8.27126C10.4994 8.51058 10.1901 8.88629 10.0333 9.33184C9.85006 9.85283 9.27914 10.1266 8.75815 9.94333C8.23716 9.76006 7.96339 9.18915 8.14666 8.66816C8.46013 7.77705 9.07886 7.02563 9.89327 6.547C10.7077 6.06837 11.6652 5.89341 12.5962 6.05311C13.5273 6.2128 14.3717 6.69686 14.9801 7.41953C15.5883 8.14205 15.9213 9.05648 15.92 10.0009C15.9195 11.5313 14.7849 12.5419 13.9747 13.082C13.5391 13.3725 13.1105 13.586 12.7949 13.7263C12.6356 13.7971 12.5015 13.8508 12.4049 13.8876C12.3565 13.906 12.3173 13.9203 12.2887 13.9305L12.254 13.9427L12.2429 13.9464L12.239 13.9478L12.2375 13.9483C12.2372 13.9484 12.2362 13.9487 11.92 13L12.2362 13.9487C11.7123 14.1233 11.146 13.8402 10.9713 13.3162C10.7968 12.7926 11.0794 12.2267 11.6027 12.0517L11.6014 12.0521C11.6015 12.0521 11.6016 12.052 11.6027 12.0517L11.6187 12.0461C11.6341 12.0406 11.6593 12.0314 11.6929 12.0186C11.7603 11.9929 11.8606 11.9529 11.9826 11.8987C12.2294 11.789 12.5509 11.6275 12.8653 11.4179C13.5549 10.9582 13.92 10.4691 13.92 10L13.92 9.99851C13.9207 9.52619 13.7542 9.06886 13.45 8.70753C13.1459 8.34619 12.7236 8.10417 12.2581 8.02432Z" />
            <path fill="currentColor" fill-rule="evenodd" clip-rule="evenodd" d="M12 15C12.5523 15 13 15.4477 13 16V16.5C13 17.0523 12.5523 17.5 12 17.5C11.4477 17.5 11 17.0523 11 16.5V16C11 15.4477 11.4477 15 12 15Z" />
        </symbol>
        <symbol id="check">
            <path d="M1.5 7.5L5 11L13 2" fill="currentColor" stroke-width="3" stroke-linecap="round" stroke-linejoin="round" />
        </symbol>
        <symbol id="radio">
            <rect width="18" height="18" rx="9" fill="currentColor"/>
        </symbol>
        <symbol id="toggler">
            <rect width="26" height="26" rx="12" fill="currentColor"/>
        </symbol>
        <symbol id="burger">
            <path fill="currentColor" d="M4 5h16a1 1 0 0 1 0 2H4a1 1 0 1 1 0-2zm0 6h16a1 1 0 0 1 0 2H4a1 1 0 0 1 0-2zm0 6h16a1 1 0 0 1 0 2H4a1 1 0 0 1 0-2z"/>
        </symbol>
        <symbol id="close">
            <svg fill="currentColor" viewBox="0 0 24 24">
                <path  d="M 4.7070312 3.2929688 L 3.2929688 4.7070312 L 10.585938 12 L 3.2929688 19.292969 L 4.7070312 20.707031 L 12 13.414062 L 19.292969 20.707031 L 20.707031 19.292969 L 13.414062 12 L 20.707031 4.7070312 L 19.292969 3.2929688 L 12 10.585938 L 4.7070312 3.2929688 z"/>
            </svg>
        </symbol>
        <symbol id="sun">
            <path fill="currentColor" d="m12 8c-2.20914 0-4 1.79086-4 4 0 2.2091 1.79086 4 4 4 2.2091 0 4-1.7909 4-4 0-2.20914-1.7909-4-4-4zm-6 4c0-3.31371 2.68629-6 6-6 3.3137 0 6 2.68629 6 6 0 3.3137-2.6863 6-6 6-3.31371 0-6-2.6863-6-6z" />
            <path fill="currentColor" d="m12 0c.5523 0 1 .447715 1 1v2c0 .55228-.4477 1-1 1s-1-.44772-1-1v-2c0-.552285.4477-1 1-1z" />
            <path fill="currentColor" d="m12 20c.5523 0 1 .4477 1 1v2c0 .5523-.4477 1-1 1s-1-.4477-1-1v-2c0-.5523.4477-1 1-1z" />
            <path fill="currentColor" d="m3.51286 3.51286c.39053-.39052 1.02369-.39052 1.41422 0l1.42 1.42c.39052.39053.39052 1.02369 0 1.41422-.39053.39052-1.02369.39052-1.41422 0l-1.42-1.42c-.39052-.39053-.39052-1.02369 0-1.41422z" />
            <path fill="currentColor" d="m17.653 17.6529c.3905-.3905 1.0237-.3905 1.4142 0l1.42 1.42c.3905.3905.3905 1.0237 0 1.4142s-1.0237.3905-1.4142 0l-1.42-1.42c-.3905-.3905-.3905-1.0237 0-1.4142z" />
            <path fill="currentColor" d="m0 12c0-.5523.447715-1 1-1h2c.55228 0 1 .4477 1 1s-.44772 1-1 1h-2c-.552285 0-1-.4477-1-1z" />
            <path fill="currentColor" d="m20 12c0-.5523.4477-1 1-1h2c.5523 0 1 .4477 1 1s-.4477 1-1 1h-2c-.5523 0-1-.4477-1-1z" />
            <path fill="currentColor" d="m6.34708 17.6529c.39052.3905.39052 1.0237 0 1.4142l-1.42 1.42c-.39053.3905-1.02369.3905-1.41422 0-.39052-.3905-.39052-1.0237 0-1.4142l1.42-1.42c.39053-.3905 1.02369-.3905 1.41422 0z" />
            <path fill="currentColor" d="m20.4872 3.51286c.3905.39053.3905 1.02369 0 1.41422l-1.42 1.42c-.3905.39052-1.0237.39052-1.4142 0-.3905-.39053-.3905-1.02369 0-1.41422l1.42-1.42c.3905-.39052 1.0237-.39052 1.4142 0z" />
        </symbol>
        <symbol id="moon">
            <path fill="currentColor" clip-rule="evenodd" d="m12.0811 2.50904c.1935.34338.1673.76841-.067 1.08538-.8543 1.15566-1.2653 2.57953-1.1584 4.01264.1068 1.43312.7245 2.78024 1.7407 3.79644s2.3633 1.6339 3.7965 1.7408c1.4331.1068 2.8569-.3042 4.0126-1.1584l.5944.8041.9958.092c-.1748 1.8914-.8846 3.6938-2.0464 5.1965-1.1618 1.5026-2.7275 2.6433-4.514 3.2886-1.7864.6453-3.7197.7684-5.57353.355-1.85387-.4133-3.55167-1.3461-4.89475-2.6892s-2.27587-3.0409-2.68924-4.8948c-.41337-1.8538-.29021-3.7871.35506-5.57351.64527-1.78643 1.78596-3.35215 3.28861-4.51394s3.30509-1.87161 5.19645-2.04639c.3925-.03627.7697.1614.9632.50478zm7.4797 12.17456c-1.0531.381-2.1827.5397-3.3167.4551-1.9108-.1425-3.707-.9661-5.0619-2.321-1.35491-1.3549-2.1785-3.15109-2.321-5.0619-.08456-1.13397.07408-2.2636.45509-3.31672-.77761.28135-1.51079.68296-2.17151 1.19381-1.20212.92943-2.11468 2.182-2.63089 3.61115-.51622 1.42916-.61475 2.97576-.28405 4.45886s1.07693 2.8413 2.15139 3.9158c1.07446 1.0744 2.43271 1.8207 3.91577 2.1514 1.4831.3307 3.0297.2321 4.4589-.2841 1.4291-.5162 2.6817-1.4287 3.6111-2.6309.5109-.6607.9125-1.3939 1.1938-2.1715z" fill-rule="evenodd" />
        </symbol>
    </defs>
</svg>